<svg xmlns="http://www.w3.org/2000/svg" version="1.1" xmlnsXlink="http://www.w3.org/1999/xlink" xmlns:svgjs="http://svgjs.dev/svgjs" width="1000" height="1000" viewBox="0 0 1000 1000"><rect width="1000" height="1000" fill="#ffffff"></rect><g transform="matrix(0.7,0,0,0.7,149.57575757575756,403.93251957146816)"><svg viewBox="0 0 396 109" data-background-color="#ffffff" preserveAspectRatio="xMidYMid meet" height="275" width="1000" xmlns="http://www.w3.org/2000/svg" xmlnsXlink="http://www.w3.org/1999/xlink"><g id="tight-bounds" transform="matrix(1,0,0,1,0.2400000000000091,-0.10334874436378527)"><svg viewBox="0 0 395.52 109.20669748872758" height="109.20669748872758" width="395.52"><g><svg viewBox="0 0 582.6187913497113 160.86638880000004" height="109.20669748872758" width="395.52"><g transform="matrix(1,0,0,1,0,24.87396231009835)"><svg viewBox="0 0 395.52 111.11846417980334" height="111.11846417980334" width="395.52"><g><svg viewBox="0 0 395.52 111.11846417980334" height="111.11846417980334" width="395.52"><g><svg viewBox="0 0 395.52 111.11846417980334" height="111.11846417980334" width="395.52"><g transform="matrix(1,0,0,1,0,0)"><svg width="395.52" viewBox="2.2699999809265137 -42.189998626708984 156.4099884033203 43.94999694824219" height="111.11846417980334" data-palette-color="#fe6d1c"><path d="M31.37 0L31.37-14.75 33.13-18.07 33.13 0 31.37 0ZM34.89 0L34.89-21.48 36.65-24.8 36.65 0 34.89 0ZM38.4 0L38.4-28.13 40.16-31.47 40.16 0 38.4 0ZM39.7-40.43L26.61-15.58 25.61-17.41 37.72-40.43 39.7-40.43ZM35.72-40.43L24.58-19.41 23.56-21.26 33.72-40.43 35.72-40.43ZM12.82 0L12.82-17.87 14.58-14.55 14.58 0 12.82 0ZM9.3 0L9.3-24.56 11.06-21.24 11.06 0 9.3 0ZM5.79 0L5.79-31.25 7.54-27.91 7.54 0 5.79 0ZM4.25-40.43L20-10.55 18.02-10.55 4.03-37.08 4.03 0 2.27 0 2.27-40.43 4.25-40.43ZM8.25-40.43L23.97-10.55 21.97-10.55 6.25-40.43 8.25-40.43ZM41.92 0L41.92-37.08 27.93-10.55 25.93-10.55 10.23-40.43 12.21-40.43 26.95-12.4 41.67-40.43 43.68-40.43 43.68 0 41.92 0ZM76.78-17.77L76.78-17.77 76.78-40.43 78.54-40.43 78.54-17.77Q78.54-14.06 75.61-11.43 72.68-8.79 68.58-8.79 64.48-8.79 61.55-11.43 58.62-14.06 58.62-17.77L58.62-17.77 58.62-40.43 60.37-40.43 60.37-17.77Q60.37-14.79 62.78-12.67 65.18-10.55 68.58-10.55 71.97-10.55 74.37-12.67 76.78-14.79 76.78-17.77ZM80.3-17.77L80.3-17.77 80.3-40.43 82.05-40.43 82.05-17.77Q82.05-15.23 80.98-12.93 79.9-10.62 78.1-8.94 76.29-7.25 73.8-6.26 71.31-5.27 68.58-5.27 65.84-5.27 63.35-6.26 60.86-7.25 59.06-8.94 57.25-10.62 56.17-12.93 55.1-15.23 55.1-17.77L55.1-17.77 55.1-40.43 56.86-40.43 56.86-17.77Q56.86-14.87 58.43-12.39 60.01-9.91 62.71-8.47 65.4-7.03 68.58-7.03 71.75-7.03 74.45-8.47 77.15-9.91 78.72-12.39 80.3-14.87 80.3-17.77ZM83.81-17.77L83.81-17.77 83.81-40.43 85.57-40.43 85.57-17.77Q85.57-14.53 84.21-11.56 82.86-8.59 80.59-6.45 78.32-4.3 75.17-3.03 72.02-1.76 68.58-1.76 65.13-1.76 61.98-3.03 58.84-4.3 56.56-6.45 54.29-8.59 52.94-11.56 51.58-14.53 51.58-17.77L51.58-17.77 51.58-40.43 53.34-40.43 53.34-17.77Q53.34-13.92 55.39-10.63 57.44-7.35 60.95-5.43 64.45-3.52 68.58-3.52 72.7-3.52 76.21-5.43 79.71-7.35 81.76-10.63 83.81-13.92 83.81-17.77ZM87.33-17.77L87.33-17.77 87.33-40.43 89.08-40.43 89.08-17.77Q89.08-12.5 86.33-8 83.57-3.49 78.84-0.87 74.12 1.76 68.58 1.76 63.03 1.76 58.31-0.87 53.59-3.49 50.83-8 48.07-12.5 48.07-17.77L48.07-17.77 48.07-40.43 49.83-40.43 49.83-17.77Q49.83-14.18 51.32-10.89 52.81-7.59 55.32-5.21 57.83-2.83 61.31-1.42 64.79 0 68.58 0 72.36 0 75.84-1.42 79.32-2.83 81.83-5.21 84.35-7.59 85.84-10.89 87.33-14.18 87.33-17.77ZM109.91-24.61L109.91-24.61 106.95-24.61Q105.07-24.61 104.24-25.57 103.41-26.54 103.41-28.13L103.41-28.13Q103.41-31.64 108.66-31.64L108.66-31.64Q113.59-31.64 116.08-30.18L116.08-30.18 114.67-29.1Q112.96-29.88 108.66-29.88L108.66-29.88Q106.56-29.88 105.84-29.42 105.12-28.96 105.12-28.13 105.12-27.29 105.51-26.83 105.9-26.37 106.95-26.37L106.95-26.37 109.98-26.37Q113.28-26.37 115.93-25.24 118.57-24.12 120.28-22.18 121.99-20.24 122.9-17.71 123.8-15.19 123.8-12.3L123.8-12.3Q123.8-9.96 123.14-7.86 122.48-5.76 121.15-4 119.82-2.25 117.95-0.96 116.08 0.32 113.51 1.04 110.93 1.76 107.93 1.76L107.93 1.76Q103.22 1.76 99.1 0.33 94.99-1.1 92.26-3.66L92.26-3.66 93.67-4.71Q96.16-2.47 99.91-1.23 103.66 0 107.93 0L107.93 0Q111.27 0 113.97-0.96 116.67-1.93 118.42-3.61 120.16-5.3 121.1-7.52 122.04-9.74 122.04-12.3L122.04-12.3Q122.04-15.7 120.67-18.44 119.31-21.19 116.51-22.9 113.72-24.61 109.91-24.61ZM106.95-22.85L106.95-22.85 109.74-22.85Q114.69-22.85 117.49-19.82 120.28-16.8 120.28-12.3L120.28-12.3Q120.28-7.74 117.04-4.75 113.79-1.76 107.93-1.76L107.93-1.76Q104.02-1.76 100.63-2.83 97.24-3.91 94.99-5.86L94.99-5.86 96.36-6.96Q98.36-5.32 101.4-4.42 104.44-3.52 107.93-3.52L107.93-3.52Q113.08-3.52 115.8-5.98 118.53-8.45 118.53-12.3L118.53-12.3Q118.53-16.11 116.24-18.6 113.96-21.09 109.71-21.09L109.71-21.09 106.95-21.09Q103.39-21.09 101.61-23.05 99.82-25 99.82-28.13 99.82-31.25 102.03-33.2 104.24-35.16 108.66-35.16L108.66-35.16Q111.76-35.16 114.42-34.44 117.08-33.72 118.82-32.37L118.82-32.37 117.43-31.3Q114.37-33.4 108.66-33.4L108.66-33.4Q104.98-33.4 103.28-31.95 101.58-30.49 101.58-28.13L101.58-28.13Q101.58-25.73 102.84-24.29 104.1-22.85 106.95-22.85ZM106.95-19.34L106.95-19.34 109.64-19.34Q113.2-19.34 114.99-17.36 116.77-15.38 116.77-12.3L116.77-12.3Q116.77-9.18 114.56-7.23 112.35-5.27 107.93-5.27L107.93-5.27Q104.83-5.27 102.16-5.99 99.48-6.71 97.75-8.06L97.75-8.06 99.14-9.13Q102.19-7.03 107.93-7.03L107.93-7.03Q111.62-7.03 113.31-8.48 115.01-9.94 115.01-12.3 115.01-14.67 113.74-16.13 112.47-17.58 109.61-17.58L109.61-17.58 106.95-17.58Q101.95-17.58 99.13-20.57 96.31-23.56 96.31-28.13 96.31-32.69 99.56-35.68 102.8-38.67 108.66-38.67L108.66-38.67Q112.57-38.67 115.95-37.6 119.33-36.52 121.58-34.57L121.58-34.57 120.21-33.47Q118.21-35.11 115.18-36.01 112.15-36.91 108.66-36.91L108.66-36.91Q103.51-36.91 100.79-34.45 98.07-31.98 98.07-28.13L98.07-28.13Q98.07-24.29 100.36-21.81 102.66-19.34 106.95-19.34ZM106.95-15.82L106.95-15.82 109.64-15.82Q111.52-15.82 112.35-14.84 113.18-13.87 113.18-12.3L113.18-12.3Q113.18-8.79 107.93-8.79L107.93-8.79Q102.97-8.79 100.48-10.25L100.48-10.25 101.9-11.33Q103.61-10.55 107.93-10.55L107.93-10.55Q110.03-10.55 110.75-11.01 111.47-11.47 111.47-12.3L111.47-12.3Q111.47-13.11 111.07-13.59 110.66-14.06 109.59-14.06L109.59-14.06 106.95-14.06Q103.58-14.06 100.86-15.16 98.14-16.26 96.39-18.19 94.65-20.12 93.72-22.66 92.79-25.2 92.79-28.13L92.79-28.13Q92.79-30.47 93.45-32.57 94.11-34.67 95.44-36.43 96.77-38.18 98.64-39.47 100.51-40.75 103.08-41.47 105.66-42.19 108.66-42.19L108.66-42.19Q113.37-42.19 117.48-40.76 121.58-39.33 124.31-36.77L124.31-36.77 122.9-35.72Q120.41-37.96 116.67-39.2 112.93-40.43 108.66-40.43L108.66-40.43Q105.32-40.43 102.62-39.47 99.92-38.5 98.18-36.82 96.43-35.13 95.49-32.91 94.55-30.69 94.55-28.13L94.55-28.13Q94.55-24.68 95.94-21.92 97.33-19.17 100.19-17.49 103.05-15.82 106.95-15.82ZM136.47-40.43L136.47 0 134.71 0 134.71-40.43 136.47-40.43ZM132.95-40.43L132.95 0 131.19 0 131.19-40.43 132.95-40.43ZM129.44-40.43L129.44 0 127.68 0 127.68-40.43 129.44-40.43ZM139.98-15.82L139.98-8.79 158.68-8.79 158.68-7.03 139.98-7.03 139.98-5.27 158.68-5.27 158.68-3.52 139.98-3.52 139.98-1.76 158.68-1.76 158.68 0 138.22 0 138.22-40.43 158.68-40.43 158.68-38.67 139.98-38.67 139.98-36.91 158.68-36.91 158.68-35.16 139.98-35.16 139.98-33.4 158.68-33.4 158.68-31.64 139.98-31.64 139.98-24.61 149.58-24.61 149.58-22.85 139.98-22.85 139.98-21.09 149.58-21.09 149.58-19.34 139.98-19.34 139.98-17.58 149.58-17.58 149.58-15.82 139.98-15.82Z" opacity="1" transform="matrix(1,0,0,1,0,0)" fill="#fe6d1c" class="undefined-text-0" data-fill-palette-color="primary" id="text-0"></path></svg></g></svg></g></svg></g></svg></g><g transform="matrix(1,0,0,1,421.75240254971123,0)"><svg viewBox="0 0 160.86638880000004 160.86638880000004" height="160.86638880000004" width="160.86638880000004"><g><svg></svg></g><g id="icon-0"><svg viewBox="0 0 160.86638880000004 160.86638880000004" height="160.86638880000004" width="160.86638880000004"><g><rect width="146.26925352000003" height="146.26925352000003" x="7.298567640000002" y="7.298567640000002" fill="#fe6d1c" data-fill-palette-color="accent"></rect><rect width="146.26925352000003" height="146.26925352000003" x="8.881784197001252e-16" y="8.881784197001252e-16" fill="#fe6d1c" opacity="0.5" data-fill-palette-color="accent"></rect></g><g transform="matrix(1,0,0,1,38.47067517209872,20.853050400000008)"><svg viewBox="0 0 83.92503845580259 119.16028800000002" height="119.16028800000002" width="83.92503845580259"><g><svg xmlns="http://www.w3.org/2000/svg" xmlnsXlink="http://www.w3.org/1999/xlink" version="1.1" x="0" y="0" viewBox="24.658000946044922 14.017998695373535 50.68522262573242 71.96500396728516" enable-background="new 0 0 100 100" xml:space="preserve" height="119.16028800000002" width="83.92503845580259" class="icon-a-0" data-fill-palette-color="background" id="a-0"><g fill="#ffffff" data-fill-palette-color="background"><path d="M75.247 41.843c-0.715-6.531-5.452-13.034-13-17.843-7.463-4.753-7.605-9.219-7.605-9.405v-0.577h-5.998v50.392c-2.51-1.511-5.615-2.416-8.995-2.416-8.28 0-14.991 5.369-14.991 11.995 0 6.623 6.711 11.994 14.991 11.994 8.278 0 14.993-5.371 14.993-11.994V30.72c1.197 0.938 2.625 1.753 4.386 2.337 14.478 4.824 13.587 20.052 10.728 22.915C73.908 51.82 75.808 46.934 75.247 41.843z" fill="#ffffff" data-fill-palette-color="background"></path></g><g display="none" fill="#ffffff" data-fill-palette-color="background"><path display="inline" d="M76.637 18.634c0-2.52-2.053-4.569-4.57-4.569H27.941c-2.521 0-4.574 2.05-4.574 4.569l-3.891 28.78h0.01V75.43h2.506v10.506h9.336V75.43h37.346v10.506h9.336V75.43h2.502V47.414h0.012L76.637 18.634zM41.25 17.337h17.508v5.123H41.25V17.337zM31.143 67.257c-3.217 0-5.832-2.611-5.832-5.833 0-3.226 2.615-5.835 5.832-5.835 3.23 0 5.84 2.609 5.84 5.835C36.982 64.646 34.373 67.257 31.143 67.257zM68.855 67.257c-3.223 0-5.832-2.611-5.832-5.833 0-3.226 2.609-5.835 5.832-5.835s5.836 2.609 5.836 5.835C74.691 64.646 72.078 67.257 68.855 67.257zM25.311 46.155l3.893-20.424h41.6l3.889 20.424H25.311z" fill="#ffffff" data-fill-palette-color="background"></path></g><g display="none" fill="#ffffff" data-fill-palette-color="background"><g display="inline" fill="#ffffff" data-fill-palette-color="background"><circle cx="24.512" cy="75.486" r="9.0" fill="#ffffff" data-fill-palette-color="background"></circle><path d="M15.519 39.506v11.992c18.186 0 32.983 14.797 32.983 32.984h11.994C60.496 59.682 40.314 39.506 15.519 39.506z" fill="#ffffff" data-fill-palette-color="background"></path><path d="M15.519 15.518v11.994c31.413 0 56.968 25.556 56.968 56.971h11.995C84.481 46.456 53.546 15.518 15.519 15.518z" fill="#ffffff" data-fill-palette-color="background"></path></g></g><g display="none" fill="#ffffff" data-fill-palette-color="background"><polygon display="inline" points="54.914,36.953 63.789,45.894 78.459,31.087 86,38.856 85.992,15 78.537,15 62.141,15    69.602,22.337  " fill="#ffffff" data-fill-palette-color="background"></polygon><polygon display="inline" points="64,73 27,73 27,37 45.734,37 60.254,22 14,22 14,86 77,86 77,40.089 64,55.39  " fill="#ffffff" data-fill-palette-color="background"></polygon></g></svg></g></svg></g></svg></g></svg></g></svg></g><defs></defs></svg><rect width="395.52" height="109.20669748872758" fill="none" stroke="none" visibility="hidden"></rect></g></svg></g></svg>